<?xml version="1.0" encoding="UTF-8" standalone="no"?>
<!-- Created with Inkscape (http://www.inkscape.org/) -->

<svg
   width="120mm"
   height="120mm"
   viewBox="0 0 120 120"
   version="1.1"
   id="svg1"
   xml:space="preserve"
   xmlns:xlink="http://www.w3.org/1999/xlink"
   xmlns="http://www.w3.org/2000/svg"
   xmlns:svg="http://www.w3.org/2000/svg"><defs
     id="defs1"><color-profile
       name="Agfa-:-Swop-Standard"
       xlink:href="file:///C:/WINDOWS/system32/spool/drivers/color/RSWOP.icm"
       id="color-profile3" /><color-profile
       name="sRGB-IEC61966-2.1"
       xlink:href="file:///C:/WINDOWS/system32/spool/drivers/color/sRGB%20Color%20Space%20Profile.icm"
       id="color-profile4" /></defs><g
     id="g7"
     transform="matrix(1.0013666,0,0,1.0013666,-53.909958,16.999993)"><path
       style="fill:#3b82f6;fill-opacity:1;stroke:#3b82f6;stroke-width:0;stroke-linecap:butt;stroke-linejoin:round;stroke-dasharray:none;stroke-opacity:1"
       d="m 63.943689,87.592158 100.331091,0.01536 c 9.40043,-2.790761 9.39784,-5.819031 9.39784,-5.819031 l -50.51772,-0.0038 c 0,0 0.002,1.715116 -2.53818,3.025833 0,0 -13.74256,0.01447 -13.74654,0.0013 -2.51103,-1.315758 -2.51346,-3.028791 -2.51346,-3.028791 l -50.520335,-0.0089 c 0,0 0.002,3.029667 10.107304,5.817622 z"
       id="path11" /><g
       id="g6"><path
         style="baseline-shift:baseline;display:inline;overflow:visible;vector-effect:none;fill:#3b82f6;stroke-width:1.26272;enable-background:accumulate;stop-color:#000000"
         d="m 60.793942,78.312592 106.622588,-0.0076 -0.002,-71.9922547 C 167.41416,2.8259963 164.61764,-1.5771835e-4 161.16807,7.31625e-6 142.28974,8.8326911e-4 85.963635,0.00127681 67.054289,0.00127681 63.591743,0.0013149 60.785265,2.838869 60.785817,6.3391385 c 0.0024,14.7657725 0.0079,51.7362385 0.0082,71.9731875 z m 6.279853,-71.9745199 94.062885,0.00254 V 71.960208 l -94.062885,0.0051 z"
         id="path17" /><path
         style="opacity:1;fill:#3b82f6;stroke-width:2"
         d="m 139.94916,54.54697 c 0.0276,-1.122346 -2.228,-1.951721 -2.53698,-1.98025 C 103.26559,72.341138 96.945286,42.19042 98.519518,36.553888 110.37635,-2.3979796 157.99376,30.101155 98.732378,34.86636 l -0.47377,3.168122 C 168.63604,33.682698 134.7343,-0.76928006 106.3982,14.614345 61.669296,35.764201 100.56154,85.756128 139.94916,54.54697 Z"
         id="path6" /></g></g></svg>
