<?xml version="1.0" encoding="UTF-8" standalone="no"?>
<!-- Created with Inkscape (http://www.inkscape.org/) -->

<svg
   width="89mm"
   height="89mm"
   viewBox="0 0 88.999999 89"
   version="1.1"
   id="svg1"
   xml:space="preserve"
   xmlns:xlink="http://www.w3.org/1999/xlink"
   xmlns="http://www.w3.org/2000/svg"
   xmlns:svg="http://www.w3.org/2000/svg"><defs
     id="defs1"><color-profile
       name="Agfa-:-Swop-Standard"
       xlink:href="file:///C:/WINDOWS/system32/spool/drivers/color/RSWOP.icm"
       id="color-profile1" /><color-profile
       name="sRGB-IEC61966-2.1"
       xlink:href="file:///C:/WINDOWS/system32/spool/drivers/color/sRGB%20Color%20Space%20Profile.icm"
       id="color-profile2" /></defs><g
     id="layer1"
     transform="matrix(0.99941351,0,0,0.99194814,52.729054,-141.85503)"><g
       id="g72"
       transform="translate(3.1750004,1.587513)"><g
         id="g16"><path
           style="fill:#3b82f6;fill-opacity:1;stroke:#3b82f6;stroke-width:0;stroke-linecap:butt;stroke-linejoin:round;stroke-dasharray:none;stroke-opacity:1"
           d="m -52.390618,219.46003 79.883308,0.0121 c 7.484588,-2.19832 7.482531,-4.58373 7.482531,-4.58373 l -40.222056,-0.003 c 0,0 0.00162,1.35102 -2.0208891,2.38349 0,0 -10.9417889,0.0114 -10.9449529,0.001 -1.999277,-1.03644 -2.001214,-2.38582 -2.001214,-2.38582 l -40.224131,-0.007 c 0,0 0.0016,2.38651 8.047404,4.58262 z"
           id="path11"
           transform="matrix(0.93333195,0,0,0.93493476,0.74422953,13.750838)" /><path
           style="baseline-shift:baseline;display:inline;overflow:visible;vector-effect:none;fill:#3b82f6;enable-background:accumulate;stop-color:#000000"
           d="m -54.898437,212.15039 84.892578,-0.006 -0.0018,-56.70928 c -8.9e-5,-2.74654 -2.226671,-4.97274 -4.97321,-4.97261 -15.0308632,6.9e-4 -59.877536,0.001 -74.933099,0.001 -2.756868,3e-5 -4.991377,2.23521 -4.990938,4.99242 0.0019,11.6312 0.0063,40.75334 0.0065,56.69426 z m 5,-56.69531 74.892578,0.002 v 51.68945 l -74.892578,0.004 z"
           id="path17"
           transform="matrix(0.93333195,0,0,0.93493476,0.74422953,13.750838)" /><text
           xml:space="preserve"
           style="font-style:normal;font-variant:normal;font-weight:normal;font-stretch:normal;font-size:127.248px;font-family:Gabriola;-inkscape-font-specification:'Gabriola, Normal';font-variant-ligatures:normal;font-variant-caps:normal;font-variant-numeric:normal;font-variant-east-asian:normal;text-align:start;writing-mode:lr-tb;direction:ltr;text-anchor:start;fill:#3b82f6;fill-opacity:1;stroke-width:20.0392"
           x="-30.172642"
           y="234.464"
           id="text16"
           transform="scale(1.1673283,0.85665704)"><tspan
             id="tspan16"
             style="font-style:normal;font-variant:normal;font-weight:normal;font-stretch:normal;font-size:127.248px;font-family:Gabriola;-inkscape-font-specification:'Gabriola, Normal';font-variant-ligatures:normal;font-variant-caps:normal;font-variant-numeric:normal;font-variant-east-asian:normal;fill:#3b82f6;fill-opacity:1;stroke-width:20.0392"
             x="-30.172642"
             y="234.464">e</tspan></text></g></g></g></svg>
