<?xml version="1.0" encoding="UTF-8" standalone="no"?>
<!-- Created with Inkscape (http://www.inkscape.org/) -->

<svg
   width="421.53101mm"
   height="86.907875mm"
   viewBox="0 0 421.531 86.907876"
   version="1.1"
   id="svg1"
   xml:space="preserve"
   xmlns:xlink="http://www.w3.org/1999/xlink"
   xmlns="http://www.w3.org/2000/svg"
   xmlns:svg="http://www.w3.org/2000/svg"><defs
     id="defs1"><color-profile
       name="Agfa-:-Swop-Standard"
       xlink:href="file:///C:/WINDOWS/system32/spool/drivers/color/RSWOP.icm"
       id="color-profile1" /><color-profile
       name="sRGB-IEC61966-2.1"
       xlink:href="file:///C:/WINDOWS/system32/spool/drivers/color/sRGB%20Color%20Space%20Profile.icm"
       id="color-profile2" /></defs><g
     id="g2"><path
       style="fill:#3b82f6;fill-opacity:1;stroke:#3b82f6;stroke-width:0;stroke-linecap:butt;stroke-linejoin:round;stroke-dasharray:none;stroke-opacity:1"
       d="m 63.943689,87.592158 100.331091,0.01536 c 9.40043,-2.790761 9.39784,-5.819031 9.39784,-5.819031 l -50.51772,-0.0038 c 0,0 0.002,1.715116 -2.53818,3.025833 0,0 -13.74256,0.01447 -13.74654,0.0013 -2.51103,-1.315758 -2.51346,-3.028791 -2.51346,-3.028791 l -50.520335,-0.0089 c 0,0 0.002,3.029667 10.107304,5.817622 z"
       id="path11" /><path
       style="baseline-shift:baseline;display:inline;overflow:visible;vector-effect:none;fill:#3b82f6;stroke-width:1.26272;enable-background:accumulate;stop-color:#000000"
       d="m 60.793942,78.312592 106.622588,-0.0076 -0.002,-71.9922547 C 167.41416,2.8259963 164.61764,-1.5771835e-4 161.16807,7.31625e-6 142.28974,8.8326911e-4 85.963635,0.00127681 67.054289,0.00127681 63.591743,0.0013149 60.785265,2.838869 60.785817,6.3391385 c 0.0024,14.7657725 0.0079,51.7362385 0.0082,71.9731875 z m 6.279853,-71.9745199 94.062885,0.00254 V 71.960208 l -94.062885,0.0051 z"
       id="path17" /><path
       style="fill:#3b82f6;stroke-width:2"
       d="m 139.94916,54.54697 c 0.0276,-1.122346 -2.228,-1.951721 -2.53698,-1.98025 C 103.26559,72.341138 96.945286,42.19042 98.519518,36.553888 110.37635,-2.3979796 157.99376,30.101155 98.732378,34.86636 l -0.47377,3.168122 C 168.63604,33.682698 134.7343,-0.76928006 106.3982,14.614345 61.669296,35.764201 100.56154,85.756128 139.94916,54.54697 Z"
       id="path6" /></g><path
     style="fill:#f7fafc;fill-opacity:1;stroke:#2d3748;stroke-width:0.538504;stroke-dasharray:none;stroke-opacity:1"
     d="m 46.54068,34.185513 c 2.150509,-0.008 4.582312,-2.09767 4.613691,-6.93088 0.0187,-2.8812 -2.477467,-6.75837 -4.628197,-6.77038 -2.15073,-0.013 -39.4432738,-0.008 -39.4432738,-0.008 L 0.34751018,11.784603 7.0823402,3.6428327 c 0,0 41.0464078,-8.5e-4 44.0723818,-3.7e-4 8.48637,0.003 14.024842,13.1008503 14.060633,23.5953103 0.02908,8.5305 -6.824129,21.05528 -14.060633,21.17162 l 14.056744,31.22335 -17.246891,-0.01 -14.757838,-30.95379 -15.873017,-0.24756 -0.17287,31.2026 c 0,0 -15.6256898,0.009 -16.80938982,0.006 -0.002,-1.08575 -0.19847,-27.84196 0.0235,-38.10194 0.0171,-0.79226 6.70792002,-6.81119 6.71213002,-7.32527 z"
     id="path20" /><g
     id="g59"
     style="stroke:#2d3748;stroke-opacity:1"
     transform="translate(126.29217,-144.62856)"><path
       style="fill:#f7fafc;fill-opacity:1;stroke:#2d3748;stroke-width:0.538504;stroke-dasharray:none;stroke-opacity:1"
       d="m 35.511296,148.10589 17.986801,-0.01 53.002753,76.04753 -19.39979,0.0274 z"
       id="path20-3" /><path
       style="fill:#f7fafc;fill-opacity:1;stroke:#2d3748;stroke-width:0.538504;stroke-dasharray:none;stroke-opacity:1"
       d="m 66.468418,205.12111 -9.399325,-12.89955 -21.563651,31.9469 17.989979,0.004 z"
       id="path20-3-0" /><path
       style="fill:#f7fafc;fill-opacity:1;stroke:#2d3748;stroke-width:0.538504;stroke-dasharray:none;stroke-opacity:1"
       d="m 74.788078,167.14455 9.399326,12.89955 21.563656,-31.9469 -17.989984,-0.004 z"
       id="path20-3-0-6" /></g><g
     id="g63"
     style="stroke:#2d3748;stroke-opacity:1"
     transform="translate(126.29217,-144.62856)"><path
       style="fill:#f7fafc;fill-opacity:1;stroke:#2d3748;stroke-width:0.538504;stroke-dasharray:none;stroke-opacity:1"
       d="m 110.63677,148.08683 4.6e-4,17.07856 70.89198,0.003 -0.003,-17.07053 z"
       id="path20-3-0-6-8" /><path
       style="fill:#f7fafc;fill-opacity:1;stroke:#2d3748;stroke-width:0.538504;stroke-dasharray:none;stroke-opacity:1"
       d="m 136.17956,171.12475 6.6e-4,53.04588 19.18435,3e-4 -0.002,-53.04931 z"
       id="path20-3-0-6-8-1" /></g><path
     style="fill:#f7fafc;fill-opacity:1;stroke:#2d3748;stroke-width:0.642422;stroke-dasharray:none;stroke-opacity:1"
     d="m 313.59417,3.4570827 6.6e-4,75.9056103 19.08043,4.3e-4 -0.002,-75.9105203 z"
     id="path20-3-0-6-8-1-8" /><path
     style="fill:#f7fafc;fill-opacity:1;stroke:#2d3748;stroke-width:0.642422;stroke-dasharray:none;stroke-opacity:1"
     d="m 339.49616,79.528403 20.01668,0.0206 21.20365,-58.99368 10.02956,22.94868 -10.31464,0.006 -6.16276,19.26885 22.52731,-0.004 4.985,16.7647 19.27616,-0.003 -30.33066,-76.0561003 -19.2486,0.009 z"
     id="path20-3-0-6-8-1-8-6" /></svg>
