<?xml version="1.0" encoding="UTF-8" standalone="no"?>
<!-- Created with Inkscape (http://www.inkscape.org/) -->

<svg
   width="421.53101mm"
   height="86.907875mm"
   viewBox="0 0 421.531 86.907876"
   version="1.1"
   id="svg1"
   xml:space="preserve"
   xmlns:xlink="http://www.w3.org/1999/xlink"
   xmlns="http://www.w3.org/2000/svg"
   xmlns:svg="http://www.w3.org/2000/svg"><defs
     id="defs1"><color-profile
       name="Agfa-:-Swop-Standard"
       xlink:href="file:///C:/WINDOWS/system32/spool/drivers/color/RSWOP.icm"
       id="color-profile1" /><color-profile
       name="sRGB-IEC61966-2.1"
       xlink:href="file:///C:/WINDOWS/system32/spool/drivers/color/sRGB%20Color%20Space%20Profile.icm"
       id="color-profile2" /></defs><g
     id="layer1"
     transform="translate(123.11717,-146.21606)"><g
       id="g16"
       transform="matrix(1.3456849,0,0,1.3578454,5.6261012,-63.467119)"><path
         style="fill:#3b82f6;fill-opacity:1;stroke:#3b82f6;stroke-width:0;stroke-linecap:butt;stroke-linejoin:round;stroke-dasharray:none;stroke-opacity:1"
         d="m -52.390618,219.46003 79.883308,0.0121 c 7.484588,-2.19832 7.482531,-4.58373 7.482531,-4.58373 l -40.222056,-0.003 c 0,0 0.00162,1.35102 -2.0208891,2.38349 0,0 -10.9417889,0.0114 -10.9449529,0.001 -1.999277,-1.03644 -2.001214,-2.38582 -2.001214,-2.38582 l -40.224131,-0.007 c 0,0 0.0016,2.38651 8.047404,4.58262 z"
         id="path11"
         transform="matrix(0.93333195,0,0,0.93493476,0.74422953,13.750838)" /><path
         style="baseline-shift:baseline;display:inline;overflow:visible;vector-effect:none;fill:#3b82f6;enable-background:accumulate;stop-color:#000000"
         d="m -54.898437,212.15039 84.892578,-0.006 -0.0018,-56.70928 c -8.9e-5,-2.74654 -2.226671,-4.97274 -4.97321,-4.97261 -15.0308632,6.9e-4 -59.877536,0.001 -74.933099,0.001 -2.756868,3e-5 -4.991377,2.23521 -4.990938,4.99242 0.0019,11.6312 0.0063,40.75334 0.0065,56.69426 z m 5,-56.69531 74.892578,0.002 v 51.68945 l -74.892578,0.004 z"
         id="path17"
         transform="matrix(0.93333195,0,0,0.93493476,0.74422953,13.750838)" /><text
         xml:space="preserve"
         style="font-style:normal;font-variant:normal;font-weight:normal;font-stretch:normal;font-size:127.248px;font-family:Gabriola;-inkscape-font-specification:'Gabriola, Normal';font-variant-ligatures:normal;font-variant-caps:normal;font-variant-numeric:normal;font-variant-east-asian:normal;text-align:start;writing-mode:lr-tb;direction:ltr;text-anchor:start;fill:#3b82f6;fill-opacity:1;stroke-width:20.0392"
         x="-30.172642"
         y="234.464"
         id="text16"
         transform="scale(1.1673283,0.85665704)"><tspan
           id="tspan16"
           style="font-style:normal;font-variant:normal;font-weight:normal;font-stretch:normal;font-size:127.248px;font-family:Gabriola;-inkscape-font-specification:'Gabriola, Normal';font-variant-ligatures:normal;font-variant-caps:normal;font-variant-numeric:normal;font-variant-east-asian:normal;fill:#3b82f6;fill-opacity:1;stroke-width:20.0392"
           x="-30.172642"
           y="234.464">e</tspan></text></g><path
       style="fill:#f7fafc;fill-opacity:1;stroke:#2d3748;stroke-width:0.538504;stroke-dasharray:none;stroke-opacity:1"
       d="m -76.57649,180.40158 c 2.150509,-0.008 4.582312,-2.09767 4.613691,-6.93088 0.0187,-2.8812 -2.477467,-6.75837 -4.628197,-6.77038 -2.15073,-0.013 -39.443274,-0.008 -39.443274,-0.008 l -6.73539,-8.69165 6.73483,-8.14177 c 0,0 41.046408,-8.5e-4 44.072382,-3.7e-4 8.48637,0.003 14.024842,13.10085 14.060633,23.59531 0.02908,8.5305 -6.824129,21.05528 -14.060633,21.17162 l 14.056744,31.22335 -17.246891,-0.01 -14.757838,-30.95379 -15.873017,-0.24756 -0.17287,31.2026 c 0,0 -15.62569,0.009 -16.80939,0.006 -0.002,-1.08575 -0.19847,-27.84196 0.0235,-38.10194 0.0171,-0.79226 6.70792,-6.81119 6.71213,-7.32527 z"
       id="path20" /><g
       id="g59"
       style="stroke:#2d3748;stroke-opacity:1"
       transform="translate(3.1750004,1.587513)"><path
         style="fill:#f7fafc;fill-opacity:1;stroke:#2d3748;stroke-width:0.538504;stroke-dasharray:none;stroke-opacity:1"
         d="m 35.511296,148.10589 17.986801,-0.01 53.002753,76.04753 -19.39979,0.0274 z"
         id="path20-3" /><path
         style="fill:#f7fafc;fill-opacity:1;stroke:#2d3748;stroke-width:0.538504;stroke-dasharray:none;stroke-opacity:1"
         d="m 66.468418,205.12111 -9.399325,-12.89955 -21.563651,31.9469 17.989979,0.004 z"
         id="path20-3-0" /><path
         style="fill:#f7fafc;fill-opacity:1;stroke:#2d3748;stroke-width:0.538504;stroke-dasharray:none;stroke-opacity:1"
         d="m 74.788078,167.14455 9.399326,12.89955 21.563656,-31.9469 -17.989984,-0.004 z"
         id="path20-3-0-6" /></g><g
       id="g63"
       style="stroke:#2d3748;stroke-opacity:1"
       transform="translate(3.1750004,1.587513)"><path
         style="fill:#f7fafc;fill-opacity:1;stroke:#2d3748;stroke-width:0.538504;stroke-dasharray:none;stroke-opacity:1"
         d="m 110.63677,148.08683 4.6e-4,17.07856 70.89198,0.003 -0.003,-17.07053 z"
         id="path20-3-0-6-8" /><path
         style="fill:#f7fafc;fill-opacity:1;stroke:#2d3748;stroke-width:0.538504;stroke-dasharray:none;stroke-opacity:1"
         d="m 136.17956,171.12475 6.6e-4,53.04588 19.18435,3e-4 -0.002,-53.04931 z"
         id="path20-3-0-6-8-1" /></g><path
       style="fill:#f7fafc;fill-opacity:1;stroke:#2d3748;stroke-width:0.642422;stroke-dasharray:none;stroke-opacity:1"
       d="m 190.477,149.67315 6.6e-4,75.90561 19.08043,4.3e-4 -0.002,-75.91052 z"
       id="path20-3-0-6-8-1-8" /><path
       style="fill:#f7fafc;fill-opacity:1;stroke:#2d3748;stroke-width:0.642422;stroke-dasharray:none;stroke-opacity:1"
       d="m 216.37899,225.74447 20.01668,0.0206 21.20365,-58.99368 10.02956,22.94868 -10.31464,0.006 -6.16276,19.26885 22.52731,-0.004 4.985,16.7647 19.27616,-0.003 -30.33066,-76.0561 -19.2486,0.009 z"
       id="path20-3-0-6-8-1-8-6" /></g></svg>
